<svg width="38" height="37" viewBox="0 0 38 37" fill="none" xmlns="http://www.w3.org/2000/svg">
<path d="M5.625 11.25C8.72688 11.25 11.25 8.72625 11.25 5.625C11.25 2.52375 8.72688 0 5.625 0C2.52313 0 0 2.52375 0 5.625C0 8.72625 2.52313 11.25 5.625 11.25ZM3.75 6.25H5V6.96625C5 7.26062 5.24 7.5 5.53375 7.5H5.71563C6.01 7.5 6.25 7.26062 6.25 6.96625C6.25 6.7625 6.13688 6.57937 5.95438 6.48875L4.73625 5.87937C4.1275 5.575 3.75 4.96375 3.75 4.28375C3.75 3.4875 4.27812 2.81938 5 2.59063V1.25H6.25V2.59063C6.97188 2.81938 7.5 3.4875 7.5 4.28375V4.375H6.25V4.28375C6.25 3.98938 6.01 3.75 5.71625 3.75H5.53437C5.24 3.75 5 3.98938 5 4.28375C5 4.4875 5.11312 4.67063 5.29562 4.76125L6.51375 5.37063C7.1225 5.675 7.5 6.28625 7.5 6.96625C7.5 7.7625 6.97188 8.43062 6.25 8.65937V10H5V8.65937C4.27812 8.43062 3.75 7.7625 3.75 6.96625V6.25Z" fill="#9C0006"/>
<path d="M10.25 28.2494L7.8125 25H3.4375L1 28.2494C0.355 29.11 0 30.1756 0 31.25C0 34.0069 2.24313 36.25 5 36.25H6.25C9.00688 36.25 11.25 34.0069 11.25 31.25C11.25 30.1756 10.895 29.11 10.25 28.2494ZM7.5 29.375H6.25V29.2838C6.25 28.99 6.01 28.75 5.71625 28.75H5.53437C5.24 28.75 5 28.99 5 29.2838C5 29.4869 5.11312 29.67 5.29562 29.7612L6.51375 30.3706C7.1225 30.675 7.5 31.2862 7.5 31.9662C7.5 32.7631 6.97188 33.4312 6.25 33.6594V35H5V33.6594C4.27812 33.4306 3.75 32.7625 3.75 31.9662V31.25H5V31.9662C5 32.26 5.24 32.5 5.53375 32.5H5.71563C6.01 32.5 6.25 32.26 6.25 31.9662C6.25 31.7631 6.13688 31.58 5.95438 31.4888L4.73625 30.8794C4.1275 30.575 3.75 29.9638 3.75 29.2838C3.75 28.4869 4.27812 27.8188 5 27.5906V26.25H6.25V27.5906C6.97188 27.8194 7.5 28.4875 7.5 29.2838V29.375Z" fill="#9C0006"/>
<path d="M9.99994 19.0537C10.7406 19.4606 11.2499 20.2394 11.2499 21.1425C11.2499 21.7812 11.0012 22.3825 10.5493 22.8344L8.94994 24.4338L11.2499 27.5C12.0562 28.5756 12.4999 29.9075 12.4999 31.25C12.4999 33.2881 11.5143 35.0962 9.99994 36.2381V36.25H13.7499V15H9.99994V19.0537Z" fill="#9C0006"/>
<path d="M5.23 18.75H3.52C2.9575 18.75 2.5 19.2075 2.5 19.77C2.5 19.8644 2.51312 19.9587 2.53875 20.0494L3.59688 23.75H7.86625L9.66562 21.9506C9.87812 21.7381 10 21.4438 10 21.1425C10 20.5125 9.4875 20 8.8575 20H7.5V21.25H6.25V19.77C6.25 19.2075 5.7925 18.75 5.23 18.75Z" fill="#9C0006"/>
<path d="M17.5 18.75H21.25V36.25H17.5V18.75Z" fill="#9C0006"/>
<path d="M25 15.625H28.75V36.25H25V15.625Z" fill="#9C0006"/>
<path d="M19.3751 11.875C20.6782 11.875 21.7388 10.8694 21.8526 9.59562L24.5944 9.13875C24.9844 10.0125 25.8576 10.625 26.8751 10.625C27.4644 10.625 27.9988 10.4119 28.4269 10.0694L35.3319 15.2481L33.0226 15.6331L33.2276 16.8662L37.5938 16.1381L36.8663 11.7719L35.6332 11.9775L36.0019 14.1894L29.1844 9.07625C29.3063 8.7825 29.3751 8.46187 29.3751 8.125C29.3751 6.74625 28.2538 5.625 26.8751 5.625C25.5719 5.625 24.5113 6.63063 24.3976 7.90438L21.6557 8.36125C21.2657 7.4875 20.3926 6.875 19.3751 6.875C18.4482 6.875 17.6476 7.3875 17.2157 8.13812L12.3894 6.82188C12.3163 7.23812 12.2044 7.64062 12.0601 8.0275L16.8788 9.34125C16.8782 9.35312 16.8751 9.36375 16.8751 9.375C16.8751 10.7537 17.9963 11.875 19.3751 11.875Z" fill="#9C0006"/>
<path d="M32.5 21.25H36.25V36.25H32.5V21.25Z" fill="#9C0006"/>
</svg>
