<svg width="40" height="41" viewBox="0 0 40 41" fill="none" xmlns="http://www.w3.org/2000/svg">
<path d="M35.2369 8.07367C35.2369 7.35262 34.5047 7.14243 33.9344 7.01493V9.11174C34.5702 9.06867 35.2369 8.7706 35.2369 8.07367Z" fill="#006100"/>
<path d="M33.2986 3.60524C32.5785 3.62592 32.1115 4.05062 32.1115 4.50547C32.1115 5.03528 32.5061 5.34196 33.2995 5.50047L33.2986 3.60524Z" fill="#006100"/>
<path d="M33.5959 12.8074C37.1279 12.8074 40 9.93444 40 6.40415C40 2.87386 37.127 0 33.5959 0C30.063 0 27.19 2.87299 27.19 6.40415C27.19 9.93444 30.063 12.8074 33.5959 12.8074ZM30.7797 4.74841C30.7797 3.30976 31.9763 2.56631 33.2995 2.52496V1.96156C33.2995 1.77979 33.4365 1.60061 33.6157 1.60061C33.7966 1.60061 33.9344 1.77979 33.9344 1.96156V2.52496C34.7588 2.5465 36.4551 3.06424 36.4551 4.10403C36.4551 4.51667 36.1467 4.75961 35.7874 4.75961C35.0974 4.75961 35.1086 3.62678 33.9353 3.60524V5.61763C35.3343 5.91397 36.5714 6.32748 36.5714 7.95824C36.5714 9.37621 35.5126 10.0973 33.9353 10.1929V10.8476C33.9353 11.0285 33.7974 11.2086 33.6165 11.2086C33.4373 11.2086 33.3004 11.0285 33.3004 10.8476V10.1929C31.5111 10.1489 30.6221 9.07987 30.6221 8.24252C30.6221 7.8204 30.8771 7.57574 31.2776 7.57574C32.4639 7.57574 31.5421 9.03679 33.3012 9.11174V6.89777C31.7308 6.61176 30.7797 5.92431 30.7797 4.74841Z" fill="#006100"/>
<path d="M7.81386 28.5258H2.29271C1.27618 28.5258 0.452619 29.3502 0.452619 30.3667V38.648C0.45348 39.6663 1.2779 40.489 2.29271 40.489H7.81386C8.83039 40.489 9.65395 39.6663 9.65395 38.648V30.3667C9.65481 29.3502 8.83125 28.5258 7.81386 28.5258Z" fill="#006100"/>
<path d="M22.0832 22.0854H16.5621C15.5455 22.0854 14.722 22.9099 14.722 23.9264V38.6497C14.722 39.668 15.5464 40.4907 16.5621 40.4907H22.0832C23.0997 40.4907 23.9242 39.668 23.9242 38.6497V23.9238C23.9242 22.9099 23.1006 22.0854 22.0832 22.0854Z" fill="#006100"/>
<path d="M36.3551 14.7233H30.8348C29.8175 14.7233 28.9939 15.5478 28.9939 16.5634V38.648C28.9939 39.6663 29.8183 40.489 30.8348 40.489H36.3551C37.3725 40.489 38.1961 39.6663 38.1961 38.648V16.5643C38.1969 15.5478 37.3725 14.7233 36.3551 14.7233Z" fill="#006100"/>
<path d="M25.3189 9.45202L20.7488 8.49665C20.399 8.42429 20.0389 8.55954 19.8244 8.84469C19.6099 9.13069 19.5806 9.51405 19.7486 9.8302L20.7617 11.7349L0.498276 22.1871C0.0468676 22.4205 -0.130595 22.9762 0.102863 23.4259C0.266542 23.742 0.587869 23.9238 0.921257 23.9238C1.0634 23.9238 1.20726 23.8919 1.34251 23.8213L21.6249 13.3588L22.5544 15.1058C22.7147 15.4073 23.0274 15.5943 23.3668 15.5943C23.3823 15.5943 23.3969 15.5934 23.4133 15.5926C23.77 15.5745 24.0844 15.3522 24.2188 15.0214L25.9839 10.6986C26.0873 10.4453 26.0735 10.1601 25.9443 9.91893C25.8142 9.68031 25.5859 9.50888 25.3189 9.45202Z" fill="#006100"/>
</svg>
